<?xml version="1.0" encoding="UTF-8"?>
<svg id="_レイヤー_2" data-name="レイヤー 2" xmlns="http://www.w3.org/2000/svg" viewBox="0 0 484.51 602.17">
  <g id="_レイヤー_1-2" data-name="レイヤー 1">
    <g>
      <path d="M.04,346.99c0-62.83-.12-125.66.05-188.49.09-34.95,18.59-58.59,51.64-63.58,15.5-2.34,31.59-.95,47.41-.83,5.12.04,7.57-.56,7.6-6.71.05-7.97,7.72-13.8,17.14-14.15,12.32-.46,24.65-.82,36.97-.94,3.72-.04,5.34-.57,5.89-4.97C171.59,28.74,203.07.45,241.18,0c38.37-.45,70.29,26.65,76.28,65.19.88,5.69,2.72,7.45,8.61,7.21,10.63-.43,21.32.28,31.98.56,12.05.31,17.95,4.86,19.95,16.63.71,4.2,2.47,4.37,5.8,4.44,17.47.39,35.03-1.6,52.4,1.17,27.33,4.36,48.09,27.98,48.13,55.68.21,130.16.28,260.32-.02,390.48-.09,36.23-25.85,60.79-62,60.79-117,0-233.99,0-350.99,0-48.32,0-71.01-22.28-71.18-70.69-.22-61.5-.05-122.99-.05-184.49h-.04ZM458.38,347.41c0-63.99,0-127.98,0-191.97,0-20.56-10.88-33.55-30.56-34.74-15.44-.93-30.98-.25-46.48-.45-3.25-.04-2.87,1.9-2.87,3.91,0,12.33.03,24.66-.02,36.99-.06,12.59-7.79,20.83-20.38,21.01-76.81,1.09-153.63,1.18-230.44-.02-13.71-.21-21.17-8.04-21.32-21.64-.13-12-.07-24,.01-35.99.02-2.64-.13-4.36-3.62-4.28-14.65.36-29.34-.1-43.96.79-19.65,1.19-32.25,15.23-32.26,34.93-.02,127.15-.03,254.29.01,381.44,0,24.54,13.6,38.03,38.03,38.03,118.65,0,237.29-.01,355.94-.02,24.63,0,37.88-13.31,37.88-38.02,0-63.32,0-126.65.03-189.97ZM240.68,155.9c0-.16,0-.31,0-.47,35.82,0,71.63-.02,107.45.04,3.27,0,4.54-.87,4.48-4.5-.23-15.49-.2-30.99,0-46.48.04-3.51-.88-4.54-4.42-4.4-14.48.57-28.97.97-43.46,1.21-6.96.11-11.45-3.44-12.32-10.47-.91-7.41-.76-14.97-2-22.31-5.84-34.53-40.4-52.34-70.33-36.47-21.33,11.31-28.18,30.05-27.53,52.89.36,12.58-5.75,17.57-18.32,16.71-12.62-.86-25.3-.9-37.94-1.55-3.63-.19-3.97,1.36-3.94,4.36.12,15.33.22,30.66-.06,45.98-.08,4.32.92,5.6,5.42,5.57,34.32-.2,68.65-.11,102.97-.11Z" style="stroke-width: 0px;"/>
      <path d="M242.16,528.48c-40.99,0-81.98.02-122.96,0-21.88-.01-34.45-11.86-34.51-33.7-.22-75.98-.21-151.95-.04-227.93.04-18.74,14.05-31.55,33.91-31.57,80.81-.08,161.62-.05,242.43-.05,27.66,0,39.41,11.8,39.41,39.52,0,72.14.01,144.29-.02,216.43-.01,26.58-10.66,37.22-37.25,37.25-40.32.04-80.64.01-120.96.01v.04ZM372.84,457.6c.45-1.32.64-1.62.64-1.91.02-61.99.03-123.98.03-185.96,0-5.56-2.74-8.12-8.39-8.04-11,.17-21.99.1-32.99.1-69.49,0-138.97.04-208.46-.03-7.25,0-13.18.33-13.14,10.23.23,50.82.12,101.65.2,152.47,0,1.29-.9,2.94.91,4.09,24.74-25.47,48.2-52.1,73.99-76.5,11.55-10.93,16.04-10.93,28.11-.37,21.38,18.71,40.44,39.63,59.64,60.44,2.5,2.7,3.81,2.49,6.18.11,4.23-4.24,8.71-8.25,13.23-12.19,9.21-8.02,14.96-7.74,23.79.72,19.11,18.31,38.59,36.25,56.27,56.84ZM241.5,502.12c40.82,0,81.65,0,122.47.01,3.24,0,6.41.07,8.04-3.57,1.74-3.91-.74-6.07-3.15-8.52-16.7-16.99-33.3-34.08-49.99-51.08-4.64-4.73-9.6-13.13-14.14-12.95-5.24.21-10.31,7.91-15.21,12.6-10.45,10.01-16.76,9.76-27.06-.62-19.81-20-39.87-39.76-59.7-59.74-2.48-2.49-3.81-2.39-6.14.17-26.79,29.47-54.88,57.67-83.94,84.89-1.4,1.31-2.23,2.64-2.2,4.72.13,8.83-.03,17.66.11,26.49.08,5.02,2.08,7.75,7.93,7.72,40.99-.2,81.98-.11,122.97-.12Z" style="stroke-width: 0px;"/>
      <path d="M303.71,369.51c-22.49-.37-40.13-18.41-39.82-40.72.31-22.14,18.52-39.88,40.51-39.45,21.64.42,40.27,19.45,39.81,40.65-.48,22.28-18.52,39.88-40.5,39.52ZM304.32,316.16c-7.7,0-13.71,5.81-13.82,13.33-.1,7.21,5.86,12.98,13.44,13.02,7.89.04,13.58-5.55,13.57-13.32,0-7.77-5.34-13.04-13.19-13.03Z" style="stroke-width: 0px;"/>
    </g>
  </g>
</svg>